# xmcd
#
# Track frame offsets:
#	150
#	11278
#	27937
#	40897
#	52596
#	66246
#	76970
#	89484
#	101072
#	110793
#	119991
#	132171
#	146886
#	156746
#	173084
#	192648
#	208840
#	227289
#	235380
#	248765
#	258569
#	275339
#
# Disc length: 3857 seconds
#
# Revision: 0
# Processed by: cddbd v1.5.2PL0 Copyright (c) Steve Scherf et al.
# Submitted via: EasyCDDAExtractor 2010.3.0.0
#
DISCID=440f0f16
DTITLE=Memphis Slim - The Blues Biography
DYEAR=2007
DGENRE=Blues
TTITLE0=Lonesome
TTITLE1=Cold Blooded Woman
TTITLE2=One Mad's Mad
TTITLE3=Let the Good Times Roll Creole
TTITLE4=What Is the Mare Rack?
TTITLE5=Pigalle Love
TTITLE6=Four Walls
TTITLE7=It's Been Too Long
TTITLE8=Big Berthe
TTITLE9=I'm Lost Without You
TTITLE10=I'll Just Keep On Singin' the Blues
TTITLE11=Lonesome In My Bedroom
TTITLE12=Diggin' My Potatoes
TTITLE13=In the Evening
TTITLE14=Red Haired Boogie
TTITLE15=Blue and Disgusted
TTITLE16=Miss Ida B
TTITLE17=I'll Take her to Chicago
TTITLE18=Halrlem Bound
TTITLE19=El Capitan
TTITLE20=Just Landed In Your Town
TTITLE21=My Baby
EXTD=
EXTT0=
EXTT1=
EXTT2=
EXTT3=
EXTT4=
EXTT5=
EXTT6=
EXTT7=
EXTT8=
EXTT9=
EXTT10=
EXTT11=
EXTT12=
EXTT13=
EXTT14=
EXTT15=
EXTT16=
EXTT17=
EXTT18=
EXTT19=
EXTT20=
EXTT21=
PLAYORDER=
